<svg xmlns="http://www.w3.org/2000/svg" xml:space="preserve" id="Layer_1" x="0" y="0" style="enable-background:new 0 0 1338.85 924.79" version="1.1" viewBox="0 0 1338.85 924.79"><style>.st0{fill:#e40177}</style><path id="XMLID_2424_" d="M1250.46 479.89c15.72 11.88 24.19 24.45 24.19 37.45 0 73.53-269.52 133.13-601.99 133.13s-602-59.6-602-133.13c0-33.13 54.73-63.43 145.26-86.72C103.2 439.96-68.49 485.5 28.7 612.85c41.97 54.99 69.72 63.27 84.95 109.54 15.62 47.47-.75 113.97 18.19 133.37 55.32 56.64 127.67-62.74 176.64-115.1 25.33-27.08 57.45-54.15 94.26-49.75 41.09 4.91 65.2 57.47 88.06 105.5 4.4 9.24 9.11 20.3 9.11 20.3 3.69 8.54 7.77 17.97 12.35 30.33 5.03 13.58 8.58 25.1 10.53 31.42 1.21 3.92 3.16 10.38 6.43 20.73.4 1.26 1.01 3.2 1.76 5.56.9 2.84 1.41 4.41 1.55 4.86 10.28-3.85 19.21-6.26 26.02-7.82 11.06-2.52 15.75-2.65 18.94-2.54 8.85.32 15.13 2.68 17.8 3.81 4.16 1.76 8.29 3.51 11.7 7.63 2.68 3.24 4.58 6.86 4.58 6.87 1.95 3.72 3.09 7.37 4.4 7.23.35-.04.33-.46 3.19-2.36l.04-.03c41.84-31.07 144.59-87.91 152.85-92.48 84.46-46.72 126.98-70.48 147.73-54.58 25.32 19.41 7.25 82.12 46.83 103.56 2.14 1.16 6.17 3.78 12.13 4.55 44.62 5.79 125.17-123.73 171.11-114.84 38.61 7.47 5.07 77.94 28.69 109.38 12.83 17.07 38.65 20.02 58.28 11.59 19.63-8.43 34.03-25.67 45.71-43.55 72.86-111.49 87.63-304.81-32.07-366.14z" class="st0"/><ellipse id="XMLID_2423_" cx="650.54" cy="518.64" class="st0" rx="507.8" ry="113.3"/><path id="XMLID_2419_" d="M342.88 315.11c-15.25 25.96-18.37 58.09-11.49 87.4 6.62 28.21 22.43 54.45 45.3 72.25 41.24 32.09 104.47 31.85 145.45-.56s55.8-93.88 34.08-141.4c-12.5-27.35-36.48-51.99-63.56-63.42-12.66-5.34-29.71-12-44.01-1.81-9.87 7.03-16.21 18.47-28.39 22.16-12.71 3.85-23.27-.36-33.32.14-17.89.88-32.73 5.97-44.06 25.24z" class="st0"/><path id="XMLID_2418_" d="M417.62 280.92C384.92 186.58 406.25 75.51 471.58 0c3.97 4.78 8 9.42 11.97 14.2-52.86 72.43-80.66 160.28-65.93 266.72z" class="st0"/></svg>