<svg xmlns="http://www.w3.org/2000/svg" xml:space="preserve" id="Layer_1" x="0" y="0" style="enable-background:new 0 0 2310.82 927.32" version="1.1" viewBox="0 0 2310.82 927.32"><style>.st0{fill:#e40177}.st2{stroke:#231f20;stroke-miterlimit:10}</style><path id="XMLID_2424_" d="M1249.89 279.61c9.16 6.92 14.09 14.24 14.09 21.82 0 42.84-157.04 77.57-350.75 77.57s-350.75-34.73-350.75-77.57c0-19.3 31.89-36.95 84.63-50.53-65.67 5.44-165.71 31.98-109.09 106.18 24.45 32.04 40.62 36.86 49.5 63.82 9.1 27.66-.44 66.41 10.6 77.71 32.23 33 74.39-36.56 102.92-67.06 14.76-15.78 33.47-31.55 54.92-28.99 23.94 2.86 37.99 33.49 51.31 61.47 2.56 5.38 5.31 11.83 5.31 11.83 2.15 4.98 4.53 10.47 7.19 17.67 2.93 7.91 5 14.62 6.14 18.31.7 2.28 1.84 6.05 3.74 12.08.23.73.59 1.86 1.03 3.24.53 1.66.82 2.57.91 2.83 5.99-2.24 11.19-3.65 15.16-4.55 6.45-1.47 9.18-1.55 11.03-1.48 5.16.19 8.81 1.56 10.37 2.22 2.42 1.03 4.83 2.04 6.81 4.44 1.56 1.89 2.67 4 2.67 4 1.13 2.17 1.8 4.3 2.56 4.21.2-.02.19-.27 1.86-1.38l.03-.02c24.38-18.1 84.24-51.22 89.06-53.88 49.21-27.22 73.99-41.06 86.08-31.8 14.75 11.31 4.23 47.85 27.28 60.34 1.24.67 3.6 2.2 7.07 2.65 26 3.37 72.93-72.09 99.7-66.91 22.5 4.35 2.95 45.41 16.72 63.73 7.48 9.95 22.52 11.66 33.95 6.76 11.43-4.91 19.82-14.96 26.63-25.37 42.46-64.97 51.07-177.61-18.68-213.34z" class="st0"/><ellipse id="XMLID_2423_" cx="900.35" cy="302.19" class="st0" rx="295.87" ry="66.01"/><path id="XMLID_2419_" d="M721.09 183.6c-8.89 15.12-10.7 33.84-6.7 50.92 3.86 16.44 13.07 31.72 26.4 42.09 24.03 18.7 60.87 18.56 84.75-.33 23.88-18.88 32.51-54.7 19.86-82.39-7.28-15.94-21.26-30.29-37.04-36.95-7.38-3.11-17.31-6.99-25.64-1.05-5.75 4.1-9.45 10.76-16.54 12.91-7.41 2.24-13.56-.21-19.41.08-10.43.53-19.08 3.49-25.68 14.72z" class="st0"/><path id="XMLID_2418_" d="M764.64 163.68C745.58 108.71 758.01 44 796.07 0c2.31 2.78 4.66 5.49 6.98 8.28-30.8 42.19-46.99 93.38-38.41 155.4z" class="st0"/><path d="M500.93 265.36c-18.97 21.93-28.65 33.2-29.05 33.79-4.15 4.94-11.66 14.33-22.53 28.16-8.89 11.46-15.61 20.26-20.16 26.38-15.02 20.75-27.52 38.93-37.5 54.54s-20.01 32.61-30.09 50.98l-2.37 4.74c22.13.59 36.65 1.58 43.57 2.96 4.94 1.38 7.41 3.36 7.41 5.93 0 1.78-.7 3.66-2.08 5.63-14.43-3.56-32.21-5.93-53.35-7.11l-2.96 5.63c-13.63 25.3-25 47.92-34.09 67.88-8.3 18.58-14.43 34.68-18.38 48.31-4.15 14.43-6.22 26.68-6.22 36.75 0 9.29 2.27 16.79 6.82 22.53 4.34 5.53 10.67 8.3 18.97 8.3 17.78 0 41.3-10.77 70.54-32.31 29.24-21.54 59.08-49.89 89.52-85.07l3.56-3.85 3.85 4.15c-12.25 15.61-29.64 34.09-52.17 55.43-10.87 10.28-21.34 19.67-31.42 28.16-10.08 8.5-19.96 16.2-29.64 23.12-13.44 9.68-26.97 17.49-40.61 23.42-13.24 5.73-24.31 8.6-33.2 8.6-10.48 0-18.78-3.66-24.9-10.97-6.33-7.31-9.49-16.9-9.49-28.75 0-33.98 18.57-82.79 55.72-146.42l11.86-20.45c0-.19.05-.34.15-.44.1-.1.39-.54.89-1.33.49-.79 1.04-1.78 1.63-2.96h-7.41c-12.06 0-25.79.89-41.2 2.67-15.02 1.98-29.34 4.35-42.98 7.11l-1.48 1.78c-.59.79-1.19 1.53-1.78 2.22-.59.7-1.09 1.33-1.48 1.93-.59.59-.99 1.09-1.19 1.48-.2.4-.59.89-1.19 1.48l-11.86 15.71c-.2.4-.59.89-1.19 1.48s-.99 1.09-1.19 1.48c-.79.79-1.58 1.78-2.37 2.96-.79 1.19-1.98 2.67-3.56 4.45l-16.6 20.75c-6.92 8.3-10.77 12.85-11.56 13.63l-21.34 24.01-6.22 7.71c-8.3 9.68-17 19.07-26.08 28.16-9.09 9.09-17.78 17.19-26.08 24.31-16.4 14.03-31.72 25-45.94 32.9-14.23 7.71-26.48 11.56-36.75 11.56-8.3 0-14.62-2.47-18.97-7.41C2.27 666.3 0 659.68 0 651.58c0-7.71 1.88-15.71 5.63-24.01 3.96-8.89 9.68-18.08 17.19-27.57 7.71-9.68 17-19.27 27.86-28.75 11.06-9.68 22.42-18.57 34.09-26.68 13.04-8.89 27.76-17.78 44.16-26.68 15.01-7.71 31.81-15.21 50.39-22.53a552.62 552.62 0 0 1 51.28-16.3l5.04-1.19c.19-.19.49-.34.89-.45.39-.1.69-.15.89-.15.19 0 1.08-.2 2.67-.59 3.56-4.15 7.41-9.38 11.56-15.71 16.01-23.12 28.55-41.99 37.64-56.61 11.46-18.18 19.27-31.52 23.42-40.01 5.14-10.08 8.3-19.36 9.49-27.86 3.56-1.58 5.83-2.37 6.82-2.37 2.17 0 3.26 1.09 3.26 3.26 0 3.36-3.16 10.77-9.49 22.23l-8.3 14.82c-3.16 5.73-9.98 17.09-20.45 34.09-13.04 20.16-26.97 40.41-41.79 60.76l-3.56 5.04c11.66-2.76 26.18-5.14 43.57-7.11 16.01-1.58 31.72-2.57 47.13-2.96 14.03-23.31 28.75-45.65 44.17-66.99 18.77-26.48 36.85-50.19 54.24-71.14l27.86-32.6c8.89-10.67 15.41-17.59 19.56-20.75 4.54-3.16 9.78-5.63 15.71-7.41zM234.46 483.81c-15.61 3.36-33.69 9.09-54.24 17.19-22.33 9.09-42.19 18.48-59.58 28.16-32.01 17.78-57.8 37.05-77.36 57.8-19.76 20.95-29.64 39.82-29.64 56.61 0 6.12 2.08 11.36 6.22 15.71 4.15 4.34 9.29 6.52 15.41 6.52 9.88 0 21.24-3.66 34.09-10.97 12.84-6.92 27.17-17.58 42.98-32.01 6.72-6.32 12-11.41 15.86-15.27 3.85-3.85 8.89-9.09 15.12-15.71 6.22-6.62 13.98-15.16 23.27-25.64 26.47-30.41 49.09-57.88 67.87-82.39z"/><path d="M552.5 563.25c-.2-.19-.5-.39-.89-.59-.4-.19-.79-.39-1.19-.59-1.19-.59-2.07-.89-2.67-.89-9.68-3.75-14.52-7.9-14.52-12.45 0-3.16 1.97-4.74 5.93-4.74 6.32 0 12.15 4.84 17.49 14.52 8.69 3.16 17.09 4.74 25.19 4.74 18.77 0 34.68-7.21 47.72-21.64 1.78-1.97 3.16-2.96 4.15-2.96 1.58 0 2.37.89 2.37 2.67 0 1.98-2.57 5.24-7.71 9.78-13.44 11.66-28.95 17.49-46.54 17.49-5.73 0-13.14-1.08-22.23-3.26.59 7.11.89 11.86.89 14.23 0 12.25-3.36 24.11-10.08 35.57-6.92 11.86-15.71 21.44-26.38 28.75-10.87 7.51-21.64 11.26-32.31 11.26-11.86 0-21.84-4.45-29.94-13.34-7.91-8.69-11.86-19.66-11.86-32.9 0-15.41 4.54-30.63 13.63-45.65 8.69-14.82 20.25-27.17 34.68-37.05 13.83-9.68 27.86-14.52 42.09-14.52 5.34 0 10.18.59 14.52 1.78 4.34 1.38 6.52 3.07 6.52 5.04 0 1.58-1.38 3.76-4.15 6.52-2.18 1.98-3.85 2.96-5.04 2.96-.2 0-.55-.15-1.04-.44-.5-.3-1.14-.54-1.93-.74-6.33-3.75-11.96-5.63-16.9-5.63-16.8 0-31.91 7.61-45.35 22.82-13.24 15.02-19.86 32.11-19.86 51.28 0 11.86 3.46 21.84 10.37 29.94 6.72 7.91 15.41 11.86 26.08 11.86 13.44 0 25.39-5.83 35.87-17.49 10.08-11.66 15.12-25.19 15.12-40.61.05-5.15-.65-10.38-2.03-15.72z"/><path d="m657.14 517.31-2.96 4.74c-7.71 12.85-15.32 27.27-22.82 43.28-7.11 14.63-13.24 29.05-18.38 43.28l2.37-1.78c17.79-14.82 36.85-28.75 57.21-41.79 33.39-21.14 55.53-31.72 66.4-31.72 3.36 0 6.12 1.09 8.3 3.26 1.97 2.18 2.96 5.24 2.96 9.19 0 4.74-2.47 15.12-7.41 31.12-4.55 15.02-7.61 27.76-9.19 38.24l4.45-4.15 15.71-14.23c14.42-12.84 27.76-23.42 40.01-31.72 13.04-9.09 25-16.1 35.87-21.04 11.46-5.14 20.45-7.71 26.97-7.71 8.49 0 12.75 3.85 12.75 11.56 0 3.96-.69 8.7-2.08 14.23-6.13 25.1-9.19 40.41-9.19 45.94 0 5.33 1.38 9.68 4.15 13.04 2.77 3.36 6.22 5.04 10.38 5.04 6.12 0 14.12-3.16 24.01-9.48 9.88-6.52 22.33-16.7 37.35-30.53 14.23-13.44 27.17-26.48 38.83-39.13 4.15-4.74 6.72-7.11 7.71-7.11 1.78 0 2.67.89 2.67 2.67 0 .99-2.57 4.35-7.71 10.08l-12.45 13.63c-3.56 3.76-11.86 11.86-24.9 24.31-12.65 11.66-21.15 19.27-25.49 22.82-20.55 16.21-37.35 24.31-50.39 24.31-6.72 0-12.15-2.47-16.3-7.41-4.35-4.94-6.52-11.16-6.52-18.67 0-8.69 1.88-20.16 5.63-34.38 2.96-11.86 4.45-18.87 4.45-21.04 0-5.73-2.57-8.6-7.71-8.6-7.31 0-21.34 7.11-42.09 21.34-16.8 11.26-32.21 23.91-46.24 37.94-11.07 10.67-18.78 18.58-23.12 23.71-4.35 4.74-7.51 7.11-9.48 7.11-5.14 0-7.71-3.75-7.71-11.26 0-4.15.89-10.08 2.67-17.78 1.97-8.69 4.74-18.87 8.3-30.53l5.04-15.12c1.78-5.33 2.67-9.38 2.67-12.15 0-4.54-2.08-6.82-6.22-6.82-5.53 0-19.47 7.11-41.79 21.34-18.18 11.86-34.43 23.56-48.76 35.12-14.33 11.56-26.33 22.78-36.01 33.64-2.57 2.96-4.65 4.45-6.22 4.45-2.77 0-4.15-1.78-4.15-5.33 0-3.95 2.27-12.45 6.82-25.49 4.15-11.86 9.68-24.7 16.6-38.53 7.31-15.41 15.41-30.03 24.3-43.87 6.08-2.98 13-5.65 20.71-8.02z"/><path d="M963.03 579.26c-2.57 8.89-3.85 16.6-3.85 23.12 0 10.08 3.06 18.28 9.19 24.6 6.32 6.52 14.23 9.78 23.71 9.78 9.49 0 19.76-2.86 30.83-8.6 10.67-5.53 23.22-14.72 37.64-27.57 15.01-13.44 30.13-28.75 45.35-45.94l7.11-8c1.97-2.37 3.11-3.71 3.41-4l.74-.74c1.78-1.97 3.26-2.96 4.45-2.96 1.58 0 2.37.79 2.37 2.37 0 1.38-3.46 5.83-10.37 13.34-28.85 32.6-53.95 57.01-75.29 73.21-23.32 17.59-42.98 26.38-58.99 26.38-11.07 0-20.16-3.76-27.27-11.26-7.31-7.31-10.97-16.79-10.97-28.46 0-14.03 4.74-29.34 14.23-45.94 10.47-18.18 23.81-33.79 40.01-46.83 16.2-12.84 30.43-19.27 42.68-19.27 6.12 0 10.87 1.38 14.23 4.15 3.36 2.77 5.04 6.82 5.04 12.15 0 9.29-4.15 18.67-12.45 28.16-8.5 9.68-19.07 17.59-31.72 23.71-13.04 6.33-25.59 9.49-37.64 9.49-1.97 0-6.12-.3-12.44-.89zm2.67-6.23c2.96.79 6.72 1.19 11.26 1.19 9.68 0 19.86-2.57 30.53-7.71 10.87-5.34 19.66-11.75 26.38-19.27 6.91-8.1 10.37-15.71 10.37-22.82 0-8.1-4.45-12.15-13.34-12.15-13.24 0-28.36 9.49-45.35 28.46-6.91 7.51-13.53 18.27-19.85 32.3z"/><path d="m1146.8 517.31-2.96 4.74c-7.71 12.85-15.32 27.27-22.82 43.28-7.11 14.63-13.24 29.05-18.38 43.28l2.37-1.78c17.78-14.82 36.85-28.75 57.21-41.79 33.39-21.14 55.53-31.72 66.4-31.72 3.36 0 6.12 1.09 8.3 3.26 1.97 2.18 2.96 5.24 2.96 9.19 0 4.74-2.47 15.12-7.41 31.12-4.55 15.02-7.61 27.76-9.19 38.24l4.45-4.15 15.71-14.23c14.42-12.84 27.76-23.42 40.01-31.72 13.04-9.09 25-16.1 35.87-21.04 11.46-5.14 20.45-7.71 26.97-7.71 8.49 0 12.75 3.85 12.75 11.56 0 3.96-.69 8.7-2.08 14.23-6.13 25.1-9.19 40.41-9.19 45.94 0 5.33 1.38 9.68 4.15 13.04 2.76 3.36 6.22 5.04 10.37 5.04 6.12 0 14.13-3.16 24.01-9.48 9.88-6.52 22.33-16.7 37.35-30.53 14.23-13.44 27.17-26.48 38.83-39.13 4.15-4.74 6.72-7.11 7.71-7.11 1.78 0 2.67.89 2.67 2.67 0 .99-2.57 4.35-7.71 10.08l-12.45 13.63c-3.56 3.76-11.86 11.86-24.9 24.31-12.65 11.66-21.15 19.27-25.49 22.82-20.55 16.21-37.35 24.31-50.39 24.31-6.72 0-12.15-2.47-16.3-7.41-4.35-4.94-6.52-11.16-6.52-18.67 0-8.69 1.88-20.16 5.63-34.38 2.96-11.86 4.45-18.87 4.45-21.04 0-5.73-2.57-8.6-7.71-8.6-7.31 0-21.34 7.11-42.09 21.34-16.8 11.26-32.21 23.91-46.24 37.94-11.07 10.67-18.78 18.58-23.12 23.71-4.35 4.74-7.51 7.11-9.49 7.11-5.14 0-7.71-3.75-7.71-11.26 0-4.15.89-10.08 2.67-17.78 1.97-8.69 4.74-18.87 8.3-30.53l5.04-15.12c1.78-5.33 2.67-9.38 2.67-12.15 0-4.54-2.07-6.82-6.22-6.82-5.53 0-19.46 7.11-41.79 21.34-18.18 11.86-34.43 23.56-48.76 35.12-14.33 11.56-26.33 22.78-36.01 33.64-2.57 2.96-4.65 4.45-6.22 4.45-2.76 0-4.15-1.78-4.15-5.33 0-3.95 2.27-12.45 6.82-25.49 4.15-11.86 9.68-24.7 16.6-38.53 7.31-15.41 15.41-30.03 24.31-43.87 6.09-2.98 13.01-5.65 20.72-8.02z"/><path d="m1578.67 556.14-1.19-3.56c14.82-8.69 22.23-18.67 22.23-29.94 0-7.31-2.87-12.94-8.6-16.89-5.73-3.75-13.93-5.63-24.6-5.63-15.41 0-32.21 4.84-50.39 14.52-18.58 9.68-34.19 21.74-46.83 36.16-9.09 10.28-16.21 20.45-21.34 30.53-5.33 10.28-8 18.87-8 25.79 0 6.92 2.17 12.25 6.52 16.01 4.15 4.15 9.49 6.22 16.01 6.22 12.05 0 26.48-7.51 43.28-22.53 16.79-15.01 31.91-34.09 45.35-57.21 3.16-1.58 5.73-2.37 7.71-2.37 2.17 0 4.54 1.48 7.11 4.45-14.43 23.91-21.64 44.46-21.64 61.65 0 5.93 1.48 10.57 4.45 13.93 2.77 3.56 6.62 5.34 11.56 5.34 10.87 0 28.16-10.37 51.87-31.12 16.4-14.62 31.22-29.15 44.46-43.57l7.11-8.3c5.34-5.93 8.6-8.89 9.78-8.89 1.58 0 2.37.89 2.37 2.67s-5.44 8.4-16.3 19.86a800.676 800.676 0 0 1-44.76 44.76c-14.23 13.04-26.68 22.73-37.35 29.05-10.87 6.52-19.76 9.78-26.68 9.78-7.11 0-12.85-2.77-17.19-8.3-4.55-5.73-6.82-12.84-6.82-21.34 0-5.53 1.08-14.33 3.26-26.38l-4.15 4.45c-32.21 33.99-59.09 50.98-80.62 50.98-7.71 0-13.73-2.47-18.08-7.41-4.74-4.74-7.11-11.26-7.11-19.56 0-8.89 2.77-18.77 8.3-29.64 5.53-11.26 13.04-22.23 22.53-32.9 9.49-10.87 19.96-20.45 31.42-28.75 15.21-11.26 31.02-20.05 47.42-26.38 16.6-6.52 31.32-9.78 44.17-9.78 13.04 0 22.92 2.18 29.64 6.52 6.71 4.35 10.08 10.77 10.08 19.27-.01 16.18-11.67 29.02-34.98 38.51z"/><path d="m1749.1 518.2-8.3 8c-5.53-3.56-10.18-5.34-13.93-5.34-5.73 0-12.45 1.68-20.16 5.04-6.92 2.96-14.03 7.51-21.34 13.63-6.92 5.53-13.34 12.15-19.27 19.86-12.25 16.4-18.38 30.73-18.38 42.98 0 14.23 6.03 21.34 18.08 21.34 11.26 0 26.87-8.79 46.83-26.38 13.63-12.05 26.68-25.49 39.13-40.31l1.19-4.45 4.15-17.78c4.15-18.77 12.25-42.48 24.3-71.14 11.46-27.46 23.71-52.27 36.75-74.4 11.66-19.96 23.61-36.36 35.87-49.2 12.45-13.24 22.03-19.86 28.75-19.86 4.54 0 6.82 2.96 6.82 8.89 0 9.68-3.76 23.71-11.26 42.09-7.71 18.18-18.58 39.03-32.61 62.54-6.33 10.87-16.3 26.58-29.94 47.13-11.07 16.8-20.95 31.03-29.64 42.68l-12.15 16.6-3.85 5.04c-2.77 18.18-4.15 31.42-4.15 39.72 0 28.85 7.41 43.28 22.23 43.28 20.55 0 53.06-24.5 97.52-73.51.39-.59.99-1.28 1.78-2.08.79-.79 1.28-1.38 1.48-1.78l1.19-1.19 1.19-1.19c2.17-2.17 3.85-4.05 5.04-5.63 2.37-2.57 3.95-3.85 4.74-3.85 1.78 0 2.67.89 2.67 2.67 0 1.19-.89 2.67-2.67 4.45-.79.79-1.98 2.18-3.56 4.15-5.54 6.52-13.74 15.32-24.6 26.38-10.87 11.07-21.64 21.34-32.31 30.83-14.43 12.85-26.38 22.04-35.87 27.57-9.88 5.73-19.07 8.6-27.57 8.6-9.29 0-16.6-4.15-21.93-12.45-5.33-8.1-8-19.86-8-35.27 0-4.94.39-10.97 1.19-18.08 0-.19.1-.94.3-2.22.19-1.28.3-2.71.3-4.3l-4.74 5.33c-20.55 22.93-37.94 39.33-52.17 49.2-13.44 9.68-26.28 14.52-38.53 14.52-7.51 0-13.24-2.27-17.19-6.82-4.15-4.54-6.22-10.67-6.22-18.38 0-12.64 4.94-26.87 14.82-42.68 9.68-15.41 22.03-28.55 37.05-39.42 18.77-13.44 34.78-20.16 48.02-20.16 6.7.01 13.02 1.79 18.95 5.35zm24.31 10.37c15.81-19.96 34.09-46.43 54.84-79.44 15.21-24.5 27.96-47.42 38.24-68.77 9.68-20.16 14.52-34.18 14.52-42.09 0-4.34-1.58-6.52-4.74-6.52-3.76 0-9.68 4.35-17.78 13.04-7.11 7.71-15.32 18.87-24.6 33.49-7.11 10.67-15.32 26.19-24.6 46.54-8.5 18.38-15.91 36.95-22.23 55.72-6.74 20.17-11.28 36.17-13.65 48.03z"/><path d="M1885.15 579.26c-2.57 8.89-3.85 16.6-3.85 23.12 0 10.08 3.06 18.28 9.19 24.6 6.32 6.52 14.23 9.78 23.71 9.78 9.49 0 19.76-2.86 30.83-8.6 10.67-5.53 23.22-14.72 37.64-27.57 15.01-13.44 30.13-28.75 45.35-45.94l7.11-8c1.97-2.37 3.11-3.71 3.41-4l.74-.74c1.78-1.97 3.26-2.96 4.45-2.96 1.58 0 2.37.79 2.37 2.37 0 1.38-3.46 5.83-10.37 13.34-28.85 32.6-53.95 57.01-75.29 73.21-23.32 17.59-42.98 26.38-58.99 26.38-11.07 0-20.16-3.76-27.27-11.26-7.31-7.31-10.97-16.79-10.97-28.46 0-14.03 4.74-29.34 14.23-45.94 10.47-18.18 23.81-33.79 40.01-46.83 16.2-12.84 30.43-19.27 42.68-19.27 6.12 0 10.87 1.38 14.23 4.15 3.36 2.77 5.04 6.82 5.04 12.15 0 9.29-4.15 18.67-12.45 28.16-8.5 9.68-19.07 17.59-31.72 23.71-13.04 6.33-25.59 9.49-37.64 9.49-1.97 0-6.12-.3-12.44-.89zm2.67-6.23c2.96.79 6.72 1.19 11.26 1.19 9.68 0 19.86-2.57 30.53-7.71 10.87-5.34 19.66-11.75 26.38-19.27 6.91-8.1 10.37-15.71 10.37-22.82 0-8.1-4.45-12.15-13.34-12.15-13.24 0-28.36 9.49-45.35 28.46-6.91 7.51-13.53 18.27-19.85 32.3zM500.93 265.36c-18.97 21.93-28.65 33.2-29.05 33.79-4.15 4.94-11.66 14.33-22.53 28.16-8.89 11.46-15.61 20.26-20.16 26.38-15.02 20.75-27.52 38.93-37.5 54.54s-20.01 32.61-30.09 50.98l-2.37 4.74c22.13.59 36.65 1.58 43.57 2.96 4.94 1.38 7.41 3.36 7.41 5.93 0 1.78-.7 3.66-2.08 5.63-14.43-3.56-32.21-5.93-53.35-7.11l-2.96 5.63c-13.63 25.3-25 47.92-34.09 67.88-8.3 18.58-14.43 34.68-18.38 48.31-4.15 14.43-6.22 26.68-6.22 36.75 0 9.29 2.27 16.79 6.82 22.53 4.34 5.53 10.67 8.3 18.97 8.3 17.78 0 41.3-10.77 70.54-32.31 29.24-21.54 59.08-49.89 89.52-85.07l3.56-3.85 3.85 4.15c-12.25 15.61-29.64 34.09-52.17 55.43-10.87 10.28-21.34 19.67-31.42 28.16-10.08 8.5-19.96 16.2-29.64 23.12-13.44 9.68-26.97 17.49-40.61 23.42-13.24 5.73-24.31 8.6-33.2 8.6-10.48 0-18.78-3.66-24.9-10.97-6.33-7.31-9.49-16.9-9.49-28.75 0-33.98 18.57-82.79 55.72-146.42l11.86-20.45c0-.19.05-.34.15-.44.1-.1.39-.54.89-1.33.49-.79 1.04-1.78 1.63-2.96h-7.41c-12.06 0-25.79.89-41.2 2.67-15.02 1.98-29.34 4.35-42.98 7.11l-1.48 1.78c-.59.79-1.19 1.53-1.78 2.22-.59.7-1.09 1.33-1.48 1.93-.59.59-.99 1.09-1.19 1.48-.2.4-.59.89-1.19 1.48l-11.86 15.71c-.2.4-.59.89-1.19 1.48s-.99 1.09-1.19 1.48c-.79.79-1.58 1.78-2.37 2.96-.79 1.19-1.98 2.67-3.56 4.45l-16.6 20.75c-6.92 8.3-10.77 12.85-11.56 13.63l-21.34 24.01-6.22 7.71c-8.3 9.68-17 19.07-26.08 28.16-9.09 9.09-17.78 17.19-26.08 24.31-16.4 14.03-31.72 25-45.94 32.9-14.23 7.71-26.48 11.56-36.75 11.56-8.3 0-14.62-2.47-18.97-7.41C2.27 666.3 0 659.68 0 651.58c0-7.71 1.88-15.71 5.63-24.01 3.96-8.89 9.68-18.08 17.19-27.57 7.71-9.68 17-19.27 27.86-28.75 11.06-9.68 22.42-18.57 34.09-26.68 13.04-8.89 27.76-17.78 44.16-26.68 15.01-7.71 31.81-15.21 50.39-22.53a552.62 552.62 0 0 1 51.28-16.3l5.04-1.19c.19-.19.49-.34.89-.45.39-.1.69-.15.89-.15.19 0 1.08-.2 2.67-.59 3.56-4.15 7.41-9.38 11.56-15.71 16.01-23.12 28.55-41.99 37.64-56.61 11.46-18.18 19.27-31.52 23.42-40.01 5.14-10.08 8.3-19.36 9.49-27.86 3.56-1.58 5.83-2.37 6.82-2.37 2.17 0 3.26 1.09 3.26 3.26 0 3.36-3.16 10.77-9.49 22.23l-8.3 14.82c-3.16 5.73-9.98 17.09-20.45 34.09-13.04 20.16-26.97 40.41-41.79 60.76l-3.56 5.04c11.66-2.76 26.18-5.14 43.57-7.11 16.01-1.58 31.72-2.57 47.13-2.96 14.03-23.31 28.75-45.65 44.17-66.99 18.77-26.48 36.85-50.19 54.24-71.14l27.86-32.6c8.89-10.67 15.41-17.59 19.56-20.75 4.54-3.16 9.78-5.63 15.71-7.41zM234.46 483.81c-15.61 3.36-33.69 9.09-54.24 17.19-22.33 9.09-42.19 18.48-59.58 28.16-32.01 17.78-57.8 37.05-77.36 57.8-19.76 20.95-29.64 39.82-29.64 56.61 0 6.12 2.08 11.36 6.22 15.71 4.15 4.34 9.29 6.52 15.41 6.52 9.88 0 21.24-3.66 34.09-10.97 12.84-6.92 27.17-17.58 42.98-32.01 6.72-6.32 12-11.41 15.86-15.27 3.85-3.85 8.89-9.09 15.12-15.71 6.22-6.62 13.98-15.16 23.27-25.64 26.47-30.41 49.09-57.88 67.87-82.39z"/><path d="M552.5 563.25c-.2-.19-.5-.39-.89-.59-.4-.19-.79-.39-1.19-.59-1.19-.59-2.07-.89-2.67-.89-9.68-3.75-14.52-7.9-14.52-12.45 0-3.16 1.97-4.74 5.93-4.74 6.32 0 12.15 4.84 17.49 14.52 8.69 3.16 17.09 4.74 25.19 4.74 18.77 0 34.68-7.21 47.72-21.64 1.78-1.97 3.16-2.96 4.15-2.96 1.58 0 2.37.89 2.37 2.67 0 1.98-2.57 5.24-7.71 9.78-13.44 11.66-28.95 17.49-46.54 17.49-5.73 0-13.14-1.08-22.23-3.26.59 7.11.89 11.86.89 14.23 0 12.25-3.36 24.11-10.08 35.57-6.92 11.86-15.71 21.44-26.38 28.75-10.87 7.51-21.64 11.26-32.31 11.26-11.86 0-21.84-4.45-29.94-13.34-7.91-8.69-11.86-19.66-11.86-32.9 0-15.41 4.54-30.63 13.63-45.65 8.69-14.82 20.25-27.17 34.68-37.05 13.83-9.68 27.86-14.52 42.09-14.52 5.34 0 10.18.59 14.52 1.78 4.34 1.38 6.52 3.07 6.52 5.04 0 1.58-1.38 3.76-4.15 6.52-2.18 1.98-3.85 2.96-5.04 2.96-.2 0-.55-.15-1.04-.44-.5-.3-1.14-.54-1.93-.74-6.33-3.75-11.96-5.63-16.9-5.63-16.8 0-31.91 7.61-45.35 22.82-13.24 15.02-19.86 32.11-19.86 51.28 0 11.86 3.46 21.84 10.37 29.94 6.72 7.91 15.41 11.86 26.08 11.86 13.44 0 25.39-5.83 35.87-17.49 10.08-11.66 15.12-25.19 15.12-40.61.05-5.15-.65-10.38-2.03-15.72z"/><path d="m657.14 517.31-2.96 4.74c-7.71 12.85-15.32 27.27-22.82 43.28-7.11 14.63-13.24 29.05-18.38 43.28l2.37-1.78c17.79-14.82 36.85-28.75 57.21-41.79 33.39-21.14 55.53-31.72 66.4-31.72 3.36 0 6.12 1.09 8.3 3.26 1.97 2.18 2.96 5.24 2.96 9.19 0 4.74-2.47 15.12-7.41 31.12-4.55 15.02-7.61 27.76-9.19 38.24l4.45-4.15 15.71-14.23c14.42-12.84 27.76-23.42 40.01-31.72 13.04-9.09 25-16.1 35.87-21.04 11.46-5.14 20.45-7.71 26.97-7.71 8.49 0 12.75 3.85 12.75 11.56 0 3.96-.69 8.7-2.08 14.23-6.13 25.1-9.19 40.41-9.19 45.94 0 5.33 1.38 9.68 4.15 13.04 2.77 3.36 6.22 5.04 10.38 5.04 6.12 0 14.12-3.16 24.01-9.48 9.88-6.52 22.33-16.7 37.35-30.53 14.23-13.44 27.17-26.48 38.83-39.13 4.15-4.74 6.72-7.11 7.71-7.11 1.78 0 2.67.89 2.67 2.67 0 .99-2.57 4.35-7.71 10.08l-12.45 13.63c-3.56 3.76-11.86 11.86-24.9 24.31-12.65 11.66-21.15 19.27-25.49 22.82-20.55 16.21-37.35 24.31-50.39 24.31-6.72 0-12.15-2.47-16.3-7.41-4.35-4.94-6.52-11.16-6.52-18.67 0-8.69 1.88-20.16 5.63-34.38 2.96-11.86 4.45-18.87 4.45-21.04 0-5.73-2.57-8.6-7.71-8.6-7.31 0-21.34 7.11-42.09 21.34-16.8 11.26-32.21 23.91-46.24 37.94-11.07 10.67-18.78 18.58-23.12 23.71-4.35 4.74-7.51 7.11-9.48 7.11-5.14 0-7.71-3.75-7.71-11.26 0-4.15.89-10.08 2.67-17.78 1.97-8.69 4.74-18.87 8.3-30.53l5.04-15.12c1.78-5.33 2.67-9.38 2.67-12.15 0-4.54-2.08-6.82-6.22-6.82-5.53 0-19.47 7.11-41.79 21.34-18.18 11.86-34.43 23.56-48.76 35.12-14.33 11.56-26.33 22.78-36.01 33.64-2.57 2.96-4.65 4.45-6.22 4.45-2.77 0-4.15-1.78-4.15-5.33 0-3.95 2.27-12.45 6.82-25.49 4.15-11.86 9.68-24.7 16.6-38.53 7.31-15.41 15.41-30.03 24.3-43.87 6.08-2.98 13-5.65 20.71-8.02z"/><path d="M963.03 579.26c-2.57 8.89-3.85 16.6-3.85 23.12 0 10.08 3.06 18.28 9.19 24.6 6.32 6.52 14.23 9.78 23.71 9.78 9.49 0 19.76-2.86 30.83-8.6 10.67-5.53 23.22-14.72 37.64-27.57 15.01-13.44 30.13-28.75 45.35-45.94l7.11-8c1.97-2.37 3.11-3.71 3.41-4l.74-.74c1.78-1.97 3.26-2.96 4.45-2.96 1.58 0 2.37.79 2.37 2.37 0 1.38-3.46 5.83-10.37 13.34-28.85 32.6-53.95 57.01-75.29 73.21-23.32 17.59-42.98 26.38-58.99 26.38-11.07 0-20.16-3.76-27.27-11.26-7.31-7.31-10.97-16.79-10.97-28.46 0-14.03 4.74-29.34 14.23-45.94 10.47-18.18 23.81-33.79 40.01-46.83 16.2-12.84 30.43-19.27 42.68-19.27 6.12 0 10.87 1.38 14.23 4.15 3.36 2.77 5.04 6.82 5.04 12.15 0 9.29-4.15 18.67-12.45 28.16-8.5 9.68-19.07 17.59-31.72 23.71-13.04 6.33-25.59 9.49-37.64 9.49-1.97 0-6.12-.3-12.44-.89zm2.67-6.23c2.96.79 6.72 1.19 11.26 1.19 9.68 0 19.86-2.57 30.53-7.71 10.87-5.34 19.66-11.75 26.38-19.27 6.91-8.1 10.37-15.71 10.37-22.82 0-8.1-4.45-12.15-13.34-12.15-13.24 0-28.36 9.49-45.35 28.46-6.91 7.51-13.53 18.27-19.85 32.3z"/><path d="m1146.8 517.31-2.96 4.74c-7.71 12.85-15.32 27.27-22.82 43.28-7.11 14.63-13.24 29.05-18.38 43.28l2.37-1.78c17.78-14.82 36.85-28.75 57.21-41.79 33.39-21.14 55.53-31.72 66.4-31.72 3.36 0 6.12 1.09 8.3 3.26 1.97 2.18 2.96 5.24 2.96 9.19 0 4.74-2.47 15.12-7.41 31.12-4.55 15.02-7.61 27.76-9.19 38.24l4.45-4.15 15.71-14.23c14.42-12.84 27.76-23.42 40.01-31.72 13.04-9.09 25-16.1 35.87-21.04 11.46-5.14 20.45-7.71 26.97-7.71 8.49 0 12.75 3.85 12.75 11.56 0 3.96-.69 8.7-2.08 14.23-6.13 25.1-9.19 40.41-9.19 45.94 0 5.33 1.38 9.68 4.15 13.04 2.76 3.36 6.22 5.04 10.37 5.04 6.12 0 14.13-3.16 24.01-9.48 9.88-6.52 22.33-16.7 37.35-30.53 14.23-13.44 27.17-26.48 38.83-39.13 4.15-4.74 6.72-7.11 7.71-7.11 1.78 0 2.67.89 2.67 2.67 0 .99-2.57 4.35-7.71 10.08l-12.45 13.63c-3.56 3.76-11.86 11.86-24.9 24.31-12.65 11.66-21.15 19.27-25.49 22.82-20.55 16.21-37.35 24.31-50.39 24.31-6.72 0-12.15-2.47-16.3-7.41-4.35-4.94-6.52-11.16-6.52-18.67 0-8.69 1.88-20.16 5.63-34.38 2.96-11.86 4.45-18.87 4.45-21.04 0-5.73-2.57-8.6-7.71-8.6-7.31 0-21.34 7.11-42.09 21.34-16.8 11.26-32.21 23.91-46.24 37.94-11.07 10.67-18.78 18.58-23.12 23.71-4.35 4.74-7.51 7.11-9.49 7.11-5.14 0-7.71-3.75-7.71-11.26 0-4.15.89-10.08 2.67-17.78 1.97-8.69 4.74-18.87 8.3-30.53l5.04-15.12c1.78-5.33 2.67-9.38 2.67-12.15 0-4.54-2.07-6.82-6.22-6.82-5.53 0-19.46 7.11-41.79 21.34-18.18 11.86-34.43 23.56-48.76 35.12-14.33 11.56-26.33 22.78-36.01 33.64-2.57 2.96-4.65 4.45-6.22 4.45-2.76 0-4.15-1.78-4.15-5.33 0-3.95 2.27-12.45 6.82-25.49 4.15-11.86 9.68-24.7 16.6-38.53 7.31-15.41 15.41-30.03 24.31-43.87 6.09-2.98 13.01-5.65 20.72-8.02z"/><path d="m1578.67 556.14-1.19-3.56c14.82-8.69 22.23-18.67 22.23-29.94 0-7.31-2.87-12.94-8.6-16.89-5.73-3.75-13.93-5.63-24.6-5.63-15.41 0-32.21 4.84-50.39 14.52-18.58 9.68-34.19 21.74-46.83 36.16-9.09 10.28-16.21 20.45-21.34 30.53-5.33 10.28-8 18.87-8 25.79 0 6.92 2.17 12.25 6.52 16.01 4.15 4.15 9.49 6.22 16.01 6.22 12.05 0 26.48-7.51 43.28-22.53 16.79-15.01 31.91-34.09 45.35-57.21 3.16-1.58 5.73-2.37 7.71-2.37 2.17 0 4.54 1.48 7.11 4.45-14.43 23.91-21.64 44.46-21.64 61.65 0 5.93 1.48 10.57 4.45 13.93 2.77 3.56 6.62 5.34 11.56 5.34 10.87 0 28.16-10.37 51.87-31.12 16.4-14.62 31.22-29.15 44.46-43.57l7.11-8.3c5.34-5.93 8.6-8.89 9.78-8.89 1.58 0 2.37.89 2.37 2.67s-5.44 8.4-16.3 19.86a800.676 800.676 0 0 1-44.76 44.76c-14.23 13.04-26.68 22.73-37.35 29.05-10.87 6.52-19.76 9.78-26.68 9.78-7.11 0-12.85-2.77-17.19-8.3-4.55-5.73-6.82-12.84-6.82-21.34 0-5.53 1.08-14.33 3.26-26.38l-4.15 4.45c-32.21 33.99-59.09 50.98-80.62 50.98-7.71 0-13.73-2.47-18.08-7.41-4.74-4.74-7.11-11.26-7.11-19.56 0-8.89 2.77-18.77 8.3-29.64 5.53-11.26 13.04-22.23 22.53-32.9 9.49-10.87 19.96-20.45 31.42-28.75 15.21-11.26 31.02-20.05 47.42-26.38 16.6-6.52 31.32-9.78 44.17-9.78 13.04 0 22.92 2.18 29.64 6.52 6.71 4.35 10.08 10.77 10.08 19.27-.01 16.18-11.67 29.02-34.98 38.51z"/><path d="m1749.1 518.2-8.3 8c-5.53-3.56-10.18-5.34-13.93-5.34-5.73 0-12.45 1.68-20.16 5.04-6.92 2.96-14.03 7.51-21.34 13.63-6.92 5.53-13.34 12.15-19.27 19.86-12.25 16.4-18.38 30.73-18.38 42.98 0 14.23 6.03 21.34 18.08 21.34 11.26 0 26.87-8.79 46.83-26.38 13.63-12.05 26.68-25.49 39.13-40.31l1.19-4.45 4.15-17.78c4.15-18.77 12.25-42.48 24.3-71.14 11.46-27.46 23.71-52.27 36.75-74.4 11.66-19.96 23.61-36.36 35.87-49.2 12.45-13.24 22.03-19.86 28.75-19.86 4.54 0 6.82 2.96 6.82 8.89 0 9.68-3.76 23.71-11.26 42.09-7.71 18.18-18.58 39.03-32.61 62.54-6.33 10.87-16.3 26.58-29.94 47.13-11.07 16.8-20.95 31.03-29.64 42.68l-12.15 16.6-3.85 5.04c-2.77 18.18-4.15 31.42-4.15 39.72 0 28.85 7.41 43.28 22.23 43.28 20.55 0 53.06-24.5 97.52-73.51.39-.59.99-1.28 1.78-2.08.79-.79 1.28-1.38 1.48-1.78l1.19-1.19 1.19-1.19c2.17-2.17 3.85-4.05 5.04-5.63 2.37-2.57 3.95-3.85 4.74-3.85 1.78 0 2.67.89 2.67 2.67 0 1.19-.89 2.67-2.67 4.45-.79.79-1.98 2.18-3.56 4.15-5.54 6.52-13.74 15.32-24.6 26.38-10.87 11.07-21.64 21.34-32.31 30.83-14.43 12.85-26.38 22.04-35.87 27.57-9.88 5.73-19.07 8.6-27.57 8.6-9.29 0-16.6-4.15-21.93-12.45-5.33-8.1-8-19.86-8-35.27 0-4.94.39-10.97 1.19-18.08 0-.19.1-.94.3-2.22.19-1.28.3-2.71.3-4.3l-4.74 5.33c-20.55 22.93-37.94 39.33-52.17 49.2-13.44 9.68-26.28 14.52-38.53 14.52-7.51 0-13.24-2.27-17.19-6.82-4.15-4.54-6.22-10.67-6.22-18.38 0-12.64 4.94-26.87 14.82-42.68 9.68-15.41 22.03-28.55 37.05-39.42 18.77-13.44 34.78-20.16 48.02-20.16 6.7.01 13.02 1.79 18.95 5.35zm24.31 10.37c15.81-19.96 34.09-46.43 54.84-79.44 15.21-24.5 27.96-47.42 38.24-68.77 9.68-20.16 14.52-34.18 14.52-42.09 0-4.34-1.58-6.52-4.74-6.52-3.76 0-9.68 4.35-17.78 13.04-7.11 7.71-15.32 18.87-24.6 33.49-7.11 10.67-15.32 26.19-24.6 46.54-8.5 18.38-15.91 36.95-22.23 55.72-6.74 20.17-11.28 36.17-13.65 48.03z"/><path d="M1885.15 579.26c-2.57 8.89-3.85 16.6-3.85 23.12 0 10.08 3.06 18.28 9.19 24.6 6.32 6.52 14.23 9.78 23.71 9.78 9.49 0 19.76-2.86 30.83-8.6 10.67-5.53 23.22-14.72 37.64-27.57 15.01-13.44 30.13-28.75 45.35-45.94l7.11-8c1.97-2.37 3.11-3.71 3.41-4l.74-.74c1.78-1.97 3.26-2.96 4.45-2.96 1.58 0 2.37.79 2.37 2.37 0 1.38-3.46 5.83-10.37 13.34-28.85 32.6-53.95 57.01-75.29 73.21-23.32 17.59-42.98 26.38-58.99 26.38-11.07 0-20.16-3.76-27.27-11.26-7.31-7.31-10.97-16.79-10.97-28.46 0-14.03 4.74-29.34 14.23-45.94 10.47-18.18 23.81-33.79 40.01-46.83 16.2-12.84 30.43-19.27 42.68-19.27 6.12 0 10.87 1.38 14.23 4.15 3.36 2.77 5.04 6.82 5.04 12.15 0 9.29-4.15 18.67-12.45 28.16-8.5 9.68-19.07 17.59-31.72 23.71-13.04 6.33-25.59 9.49-37.64 9.49-1.97 0-6.12-.3-12.44-.89zm2.67-6.23c2.96.79 6.72 1.19 11.26 1.19 9.68 0 19.86-2.57 30.53-7.71 10.87-5.34 19.66-11.75 26.38-19.27 6.91-8.1 10.37-15.71 10.37-22.82 0-8.1-4.45-12.15-13.34-12.15-13.24 0-28.36 9.49-45.35 28.46-6.91 7.51-13.53 18.27-19.85 32.3zM1942.64 900.64c19.27-26.95 38.54-53.9 57.8-80.85 19.17-26.82 38.34-53.63 57.51-80.45 10.84-15.17 21.69-30.34 32.53-45.51l-6.87-4.02c-4.34 6.82-8.77 13.76-13.74 19.59-2.64 3.1-5.5 6.03-8.62 8.66-.38.32-.77.64-1.16.95-.06.05-.71.55-.38.3.29-.22-.24.18-.23.17-.81.6-1.63 1.18-2.47 1.73a51.707 51.707 0 0 1-5.05 2.92c-1.91.96-2.57 1.25-4.53 1.93-1.76.62-3.56 1.12-5.4 1.48a59 59 0 0 1-1.3.23c-.04.01-.66.09-.21.03.49-.06-.29.03-.39.04a27.965 27.965 0 0 1-5.25.07c-.28-.02-1.06-.12-.35-.02-.46-.07-.92-.15-1.38-.24-.79-.16-1.58-.37-2.35-.63-.38-.13-.76-.28-1.14-.41-.46-.17.19.08.23.1-.22-.11-.45-.21-.68-.32-.61-.3-1.21-.64-1.78-1-.28-.18-.55-.37-.83-.56-.08-.05-.48-.35-.05-.03.48.36-.16-.14-.26-.22a17.99 17.99 0 0 1-1.98-1.96c-.12-.14-.23-.29-.35-.43.17.18.4.56.11.15-.79-1.11-1.46-2.26-2.05-3.48-.43-.91.15.45-.1-.22-.12-.31-.24-.62-.35-.94a25.074 25.074 0 0 1-1.04-4.12c-.07-.42-.11-.83-.03-.13-.05-.45-.1-.91-.14-1.36-.12-1.45-.14-2.91-.07-4.36.03-.75.09-1.49.17-2.24.03-.32.16-1.21.04-.39.06-.43.13-.86.21-1.29.55-3.16 1.5-6.19 2.66-9.16.22-.56-.26.56 0 .01.07-.15.14-.31.21-.47.16-.36.33-.73.51-1.08.37-.77.77-1.53 1.18-2.28.8-1.45 1.7-2.86 2.65-4.22.43-.61.87-1.22 1.31-1.82.45-.61.1-.14.01-.02l.32-.41c.32-.41.65-.81.98-1.2a65.713 65.713 0 0 1 6.85-7.05c.6-.54 1.22-1.06 1.84-1.57.31-.26.63-.51.94-.76l.41-.32c.5-.4-.73.55.15-.12 2.64-1.98 5.39-3.8 8.26-5.43 1.46-.83 2.95-1.61 4.46-2.34a76.415 76.415 0 0 1 3.16-1.45c.14-.06.71-.29.01-.01.21-.09.43-.18.64-.26 3.09-1.26 6.27-2.32 9.49-3.18 1.54-.41 3.1-.78 4.67-1.09.78-.16 1.56-.3 2.34-.44.39-.07.78-.13 1.17-.19.17-.03.33-.05.5-.08 0 0 1.04-.15.48-.07-.43.06.59-.07.81-.1.39-.05.78-.09 1.17-.13.83-.08 1.67-.15 2.5-.21 1.54-.1 3.09-.15 4.64-.15 1.58 0 3.16.06 4.74.18.75.06 1.51.12 2.26.21.37.04.75.09 1.12.13-.88-.1.2.03.53.08 3.07.48 6.09 1.21 9.04 2.19.8.26 1.59.54 2.38.84l1.17.45c.17.07.33.13.5.2.43.17-.49-.22.2.08 1.56.69 3.09 1.43 4.59 2.24 1.43.77 2.83 1.61 4.19 2.5.68.44 1.35.9 2.01 1.37.33.23.66.47.98.71.19.14 1.18.91.57.43 2.57 2.04 4.98 4.25 7.22 6.64 1.14 1.22 2.22 2.48 3.26 3.78.14.18.29.36.43.54-.04-.05-.37-.48-.09-.12.24.32.49.64.72.97.51.7 1.01 1.4 1.5 2.12 1.86 2.74 3.52 5.6 4.98 8.57.36.73.71 1.47 1.05 2.22.17.37.33.75.5 1.12l.21.48c-.22-.53-.05-.11.07.19.64 1.58 1.23 3.18 1.77 4.8 1.06 3.21 1.92 6.48 2.57 9.8.16.82.31 1.64.44 2.47.07.41.13.83.19 1.24.03.18.05.36.08.53.1.68-.12-.97.05.38.24 1.97.43 3.94.55 5.92.26 4.15.26 8.31.04 12.45-.11 2.03-.27 4.06-.48 6.08-.24 2.31-.4 3.47-.75 5.71-.66 4.2-1.52 8.37-2.54 12.49-4.15 16.78-10.59 32.59-18.85 47.67-7.34 13.4-16.16 24.97-28.32 34.42.54-.42-.04.03-.26.19-.32.24-.64.48-.96.71-.71.52-1.42 1.03-2.15 1.52-1.45 1-2.94 1.95-4.46 2.84-1.57.92-3.17 1.79-4.81 2.57-.34.16-.69.33-1.04.48-.23.11-.46.21-.7.31-.02.01-.6.26-.23.1.21-.09-.73.29-.94.38-.48.19-.96.36-1.44.54-1.75.62-3.55 1.15-5.36 1.54-.88.19-1.77.35-2.66.49-.47.07.02 0 .1-.01l-.77.09a33.583 33.583 0 0 1-7.04-.03c-.81-.09-.3-.04-.13-.01-.2-.03-.4-.06-.59-.1-.17-.03-.34-.06-.5-.09l-.75-.15c-.91-.2-1.81-.45-2.68-.76l-.63-.24c-.84-.31 1.08.5.19.08-.43-.21-.87-.41-1.29-.64-.9-.49-1.75-1.04-2.58-1.64-.22-.16-.44-.33-.66-.49-.13-.1.92.74.38.29-.13-.1-.26-.21-.39-.31-.47-.39-.94-.78-1.4-1.19-5.9-5.21-11.03-11.34-16.25-17.21-10.23-11.49-20.42-23.02-30.92-34.26-4.23-4.53-8.51-9.05-13.43-12.82-3.1-2.38-6.66-4.3-10.57-4.88-12.99-1.94-25.57 6.66-32.95 16.71-2.98 4.05-5.71 9.45-4.53 14.62 1.06 4.63 5.75 6.95 10.03 7.76 5.23 1 10.62.82 15.9.36 5.32-.47 10.62-1.26 15.88-2.21 8.94-1.62 17.74-3.8 26.28-6.92 13.44-4.9 26.15-11.64 37.88-19.81 7.19-5.01 14.04-10.52 20.54-16.41 1.55-1.4 1.53-4.22 0-5.63-1.65-1.52-3.98-1.49-5.63 0-12.09 10.96-25.32 20.4-40.1 27.78-1.53.76-3.06 1.5-4.61 2.21-.72.33-1.45.66-2.18.98-.36.16-.72.31-1.08.47-.2.09-.41.17-.61.26.32-.14.42-.17.04-.02-2.8 1.17-5.64 2.26-8.51 3.25a142.54 142.54 0 0 1-15 4.31c-3.7.85-7.44 1.56-11.19 2.2-1.21.21-2.42.4-3.63.59-.62.09-1.24.19-1.86.27-.32.04-.64.11-.95.13.92-.08.08-.01-.32.04-2.73.35-5.46.62-8.21.77-2.6.15-5.21.19-7.81.01-.57-.04-1.14-.1-1.71-.16.04 0-.47-.07-.47-.06.01-.01.88.14.48.06-.3-.06-.6-.09-.9-.15-1-.18-1.96-.45-2.92-.77-.8-.26.27.14.17.08-.18-.1-.38-.18-.57-.27-.18-.09-.35-.19-.53-.3-.1-.06-.19-.13-.28-.18-.51-.3.33-.07.34.28-.01-.11-.63-.6-.74-.7-.51-.48.4.71.21.27-.07-.15-.2-.38-.3-.52-.25-.34.26.95.14.28-.03-.18-.09-.39-.14-.57-.17-.51.04 1.05.04.28 0-.28-.02-.55-.01-.82.01-.13.1-.46.04-.57.2.44-.17.94-.06.47l.06-.3c.11-.53.25-1.05.42-1.57.08-.26.18-.51.27-.76.32-.9-.29.59.02-.05.3-.62.59-1.23.92-1.83.64-1.14 1.37-2.22 2.14-3.28.42-.58-.01 0-.09.1.12-.16.25-.31.37-.47.19-.24.38-.47.58-.7.54-.63 1.09-1.25 1.66-1.85 1.04-1.09 2.14-2.11 3.28-3.08.33-.28.67-.56 1.02-.83.59-.47-.38.27.24-.18.72-.52 1.43-1.03 2.18-1.51 1.3-.84 2.64-1.6 4.04-2.26.16-.08 1.41-.63.55-.27.3-.13.61-.25.91-.36a27.202 27.202 0 0 1 4.65-1.32c.31-.06.63-.11.94-.15-.99.15.27-.01.52-.03 1.16-.08 2.32-.05 3.48.04.67.06-.08.03-.37-.06.21.06.46.07.68.11.39.07.78.16 1.17.27.39.1.78.22 1.16.36.22.08.44.17.66.25.5.17-.97-.45-.12-.05.81.39 1.6.8 2.36 1.27.41.26.82.52 1.22.8.24.17.48.34.71.51.33.24 1.03.48.11.07.96.42 1.93 1.58 2.7 2.27 2.32 2.07 4.51 4.29 6.67 6.54 10.95 11.41 21.38 23.33 31.89 35.14 5.63 6.33 11.14 12.91 17.37 18.68 3.61 3.34 7.6 6.26 12.41 7.57 13.14 3.58 27-1.69 37.87-8.98 12.72-8.53 23.02-20.02 31.07-32.98 4.41-7.11 8.19-14.59 11.62-22.22 3.75-8.33 7.08-16.86 9.76-25.6 5.02-16.39 7.9-33.86 6.26-51.01-1.36-14.25-5.91-28.26-14.28-39.97-8.3-11.6-19.78-20.51-33.38-24.99-12.65-4.17-26.55-3.83-39.36-.56-13.37 3.41-26.07 10.19-35.99 19.83-9.89 9.61-17.09 22.48-17.17 36.55-.04 6.06 1.37 12.52 5.07 17.44 4.33 5.75 10.72 8.82 17.86 9.31 7.81.55 15.77-2.1 22.52-5.84 7.27-4.02 13.45-9.81 18.71-16.19 5.2-6.31 9.65-13.17 14.02-20.06 1.12-1.76.42-4.47-1.43-5.44-2.05-1.08-4.15-.39-5.44 1.43-19.27 26.95-38.54 53.9-57.8 80.85-19.17 26.82-38.34 53.63-57.51 80.45-10.84 15.17-21.69 30.34-32.53 45.51-1.21 1.7-.35 4.5 1.43 5.44 2.01 1.16 4.1.46 5.4-1.36z"/><path d="M2164.22 757.34c.71.93 1.29 1.92 1.75 2.99-.24-.57-.48-1.14-.72-1.72.49 1.2.81 2.43.98 3.7-.09-.64-.17-1.27-.26-1.91.11.91.13 1.82.09 2.74-.07 1.57.61 3.15 1.54 4.36.92 1.19 2.23 2.23 3.73 2.58 1.26.29 2.56.29 3.82 0 1.51-.34 3.67-1.83 4.3-3.3.37-.86.83-1.65 1.4-2.39l-1.12 1.45a12.8 12.8 0 0 1 2.02-2.01c-.49.37-.97.75-1.45 1.12.71-.53 1.46-.98 2.26-1.35-.57.24-1.15.48-1.72.72.87-.37 1.77-.62 2.7-.77-.64.09-1.27.17-1.91.26.8-.1 1.59-.12 2.39-.03-.64-.09-1.27-.17-1.91-.26.48.07.94.16 1.41.3-.57-4.38-1.15-8.76-1.72-13.14-4.67 2.41-9.34 4.83-14.01 7.24 3.52 1.43 7.04 2.86 10.56 4.3-1.36-3.27-2.71-6.53-4.07-9.8-.75-1.81-1.54-3.27-3.3-4.3-1.54-.9-3.81-1.28-5.54-.72-1.74.56-3.42 1.64-4.3 3.3-.84 1.59-1.45 3.8-.72 5.54 1.36 3.27 2.71 6.53 4.07 9.8.34 1.22.96 2.28 1.85 3.17.65.7 1.42 1.2 2.31 1.49 2.18.92 4.31.72 6.4-.36 4.67-2.41 9.34-4.83 14.01-7.24 1.01-.52 2.01-1.61 2.58-2.58.82-1.4 1.07-3 .85-4.58a7.221 7.221 0 0 0-5.15-5.98c-4.3-1.26-8.99-.49-12.87 1.64-3.1 1.7-6.04 4.64-7.43 7.92l13.4 3.63c.21-4.49-1.05-9.46-3.81-13.06-1.19-1.55-2.33-2.76-4.3-3.3-1.72-.47-4.01-.26-5.54.72-1.53.99-2.89 2.46-3.3 4.3-.4 1.74-.42 4.04.73 5.53z" style="fill:#231f20"/><path d="M1751.93 791.19c-.49 4.56-.73 8.63-.73 12.21 0 12.31 1.5 21.76 4.51 28.35 3.1 6.69 7.36 10.03 12.79 10.03 3.29 0 6.3-1.36 9.01-4.07 2.52-2.52 4.6-6.25 6.25-11.19 1.45-4.84 2.18-10.08 2.18-15.7 0-1.26-.1-3.15-.29-5.67-9.21-7.17-13.81-14.1-13.81-20.79 0-2.52.92-3.78 2.76-3.78 2.42 0 4.7 1.65 6.83 4.94 1.94 3.01 4.07 7.95 6.4 14.83l.73 2.04c4.55 3.49 9.98 5.23 16.28 5.23 4.55 0 9.21-1.02 13.96-3.05 4.55-1.94 8.43-4.51 11.63-7.71l1.89-2.04c.48-.29.82-.44 1.02-.44.97 0 1.45.49 1.45 1.45 0 .49-.92 1.6-2.76 3.34-8.43 7.56-17.64 11.34-27.62 11.34-5.23 0-10.37-1.36-15.41-4.07.1.87.15 2.42.15 4.65 0 11.05-2.38 20.11-7.12 27.19-4.85 7.17-10.76 10.76-17.74 10.76-6.49 0-11.73-3.15-15.7-9.45-3.88-6.2-5.82-14.68-5.82-25.44 0-10.18 1.55-21.32 4.65-33.44 3-11.73 7.75-24.52 14.25-38.38 5.62-11.92 11.29-22.19 17.01-30.82 5.91-8.72 11.29-15.07 16.14-19.04 4.26-3.68 7.51-5.52 9.74-5.52 2.23 0 3.34 1.7 3.34 5.09 0 5.23-2.13 12.7-6.4 22.39-3.2 7.46-8.92 17.88-17.15 31.26-8.34 13.18-16.48 24.91-24.42 35.18l-6.69 8.58c0-.2-.43.38-1.31 1.74zm.88-6.69c7.46-9.3 14.15-18.27 20.06-26.89 5.04-7.36 10.22-15.65 15.56-24.86 4.94-8.53 8.72-15.89 11.34-22.1 2.71-6.4 4.07-11.39 4.07-14.97 0-2.13-.58-3.2-1.74-3.2-3.39 0-8.87 4.99-16.43 14.97-15.42 20.55-26.37 46.23-32.86 77.05z" class="st2"/><path d="M1848.17 785.96c-14.25 18.12-21.37 31.84-21.37 41.14 0 2.91.92 5.28 2.76 7.12 1.75 1.94 3.93 2.91 6.54 2.91 5.72 0 11.73-3.15 18.03-9.45 6.11-6.2 11.24-14 15.41-23.41 4.17-9.3 6.25-18.32 6.25-27.04v-1.89l6.4-4.07c.29 2.04.44 4.41.44 7.12 0 7.08-1.45 15.7-4.36 25.88-3.88 13.18-7.41 23.07-10.61 29.66l-2.91 6.11c-.1.1-.15.2-.15.29 0 .1-.05.2-.15.29-.1.1-.15.29-.15.58-.1.1-.24.39-.44.87 0 .2-.07.36-.22.51-.15.14-.27.32-.36.51 7.07-4.36 15.65-11.14 25.73-20.35 10.08-9.01 18.61-17.74 25.59-26.17.87-.97 1.55-1.45 2.04-1.45.97 0 1.45.44 1.45 1.31 0 .58-.34 1.21-1.02 1.89l-2.76 3.05-7.27 7.85c-6.69 7.37-15.41 15.56-26.17 24.57-5.04 4.07-11.97 9.21-20.79 15.41-.1.1-.29.53-.58 1.31-.29.48-.58.87-.87 1.16l-4.22 7.27c-3.68 6.4-8.29 13.13-13.81 20.21-10.66 13.96-22.63 26.12-35.91 36.49-9.79 7.46-18.32 11.19-25.59 11.19-2.81 0-5.18-.97-7.12-2.91-1.94-1.94-2.91-4.31-2.91-7.12 0-7.27 4.8-15.12 14.39-23.55 3.97-3.49 9.74-7.71 17.3-12.65 4.17-2.52 10.95-6.4 20.35-11.63 14.63-8.43 22.34-12.89 23.12-13.37 1.36-.68 4.65-2.67 9.88-5.96 1.55-2.42 3.49-6.64 5.82-12.65l3.34-8.29c1.65-4.17 3.1-8.58 4.36-13.23-12.12 17.64-23.6 26.46-34.45 26.46-4.17 0-7.61-1.5-10.32-4.51-2.71-2.81-4.07-6.44-4.07-10.9 0-5.14 1.74-11.24 5.23-18.32 3.58-7.27 8.14-14.1 13.67-20.5 2.63-1.07 6.12-1.65 10.48-1.74zm3.64 68.32-2.62 1.6-10.32 5.96-12.5 7.41c-11.73 6.88-20.93 12.7-27.62 17.45-7.17 5.14-12.31 9.79-15.41 13.96-3.1 4.26-4.65 8.19-4.65 11.78 0 2.04.78 3.78 2.33 5.23 1.55 1.45 3.3 2.18 5.23 2.18 5.04 0 11.87-3.34 20.5-10.03 8.14-6.4 16.67-14.93 25.59-25.59 8.51-10.37 15.01-20.35 19.47-29.95zM2164.51 786.25l-1.45 2.18c-6.98 10.95-11.87 19.67-14.68 26.17-2.91 6.69-4.36 12.55-4.36 17.59 0 5.14 2.08 7.71 6.25 7.71 3.49 0 8.09-1.7 13.81-5.09 6.01-3.49 12.5-8.33 19.48-14.54 7.46-6.59 14.25-13.28 20.35-20.06 2.52-2.81 4.07-4.22 4.65-4.22.87 0 1.31.44 1.31 1.31 0 .39-2.52 3.25-7.56 8.58-8.63 8.92-16.14 16.09-22.53 21.52-7.27 6.11-14.01 10.9-20.21 14.39-6.01 3.3-10.9 4.94-14.68 4.94-3.3 0-5.86-1.07-7.7-3.2-1.94-2.13-2.91-4.89-2.91-8.29 0-8.82 4.02-20.16 12.07-34.02 2.23-4.07 4.94-8.38 8.14-12.94 4.15-1.26 7.5-1.94 10.02-2.03z" class="st2"/><path d="m2262.64 803.25-.58-1.75c7.27-4.26 10.9-9.16 10.9-14.68 0-3.58-1.41-6.35-4.22-8.29-2.81-1.84-6.83-2.76-12.07-2.76-7.56 0-15.8 2.38-24.71 7.12-9.11 4.75-16.77 10.66-22.97 17.74-4.46 5.04-7.95 10.03-10.47 14.97-2.62 5.04-3.92 9.26-3.92 12.65 0 3.39 1.06 6.01 3.2 7.85 2.04 2.04 4.65 3.05 7.85 3.05 5.91 0 12.99-3.68 21.22-11.05 8.24-7.36 15.65-16.72 22.24-28.06 1.55-.77 2.81-1.16 3.78-1.16 1.07 0 2.23.73 3.49 2.18-7.08 11.73-10.61 21.81-10.61 30.24 0 2.91.73 5.19 2.18 6.83 1.36 1.75 3.25 2.62 5.67 2.62 5.33 0 13.81-5.09 25.44-15.26 8.04-7.17 15.31-14.29 21.81-21.37l3.49-4.07c2.62-2.91 4.22-4.36 4.8-4.36.77 0 1.16.44 1.16 1.31 0 .87-2.67 4.12-8 9.74-6.98 7.56-14.3 14.88-21.95 21.95-6.98 6.4-13.08 11.15-18.32 14.25-5.33 3.2-9.69 4.8-13.08 4.8-3.49 0-6.3-1.36-8.43-4.07-2.23-2.81-3.34-6.3-3.34-10.47 0-2.71.53-7.03 1.6-12.94l-2.04 2.18c-15.8 16.67-28.98 25-39.54 25-3.78 0-6.73-1.21-8.87-3.63-2.33-2.33-3.49-5.52-3.49-9.59 0-4.36 1.36-9.21 4.07-14.54 2.71-5.52 6.4-10.9 11.05-16.14a92.082 92.082 0 0 1 15.41-14.1c7.46-5.52 15.21-9.84 23.26-12.94 8.14-3.2 15.36-4.8 21.66-4.8 6.4 0 11.24 1.07 14.54 3.2 3.29 2.13 4.94 5.28 4.94 9.45 0 7.95-5.72 14.25-17.15 18.9z" class="st2"/><path d="M2157.65 766.73c.61.55 1.17 1.15 1.68 1.79l-1.12-1.45c.73.96 1.32 2 1.8 3.11-.24-.57-.48-1.14-.72-1.72.51 1.25.84 2.53 1.02 3.86.24.57.48 1.14.72 1.72.45.84 1.07 1.51 1.85 2.02 1.21.94 2.78 1.61 4.36 1.54 3.06-.14 6.22-2.12 6.93-5.28.15-.66.35-1.29.61-1.91-.24.57-.48 1.14-.72 1.72.36-.81.81-1.57 1.34-2.29l-1.12 1.45c.61-.79 1.3-1.49 2.08-2.11-.49.37-.97.75-1.45 1.12.73-.55 1.51-1 2.35-1.37-.57.24-1.14.48-1.72.72.82-.33 1.65-.56 2.53-.68-.64.09-1.27.17-1.91.26.65-.07 1.29-.08 1.94-.01-1.69-4.09-3.39-8.18-5.08-12.27-4.16 3.22-8.31 6.44-12.47 9.66 3.76.48 7.53.97 11.29 1.45l-5.78-8.9c-1.02-1.56-2.47-2.8-4.3-3.3-1.72-.47-4.01-.26-5.54.72-3.15 2.03-4.77 6.46-2.58 9.84l5.78 8.9c1.25 1.93 2.97 3.13 5.25 3.43.96.21 1.91.17 2.87-.13 1.22-.34 2.28-.96 3.17-1.85 4.16-3.22 8.31-6.44 12.47-9.66l1.12-1.45c.24-.57.48-1.14.72-1.72.43-1.57.26-3.2-.36-4.68-.5-1.18-1.2-2.09-2.21-2.88-1.35-1.04-2.65-1.37-4.36-1.54-4.36-.45-8.6 1.49-11.9 4.16-2.88 2.32-5.07 5.87-5.88 9.48h13.86c-.61-4.46-3-8.93-6.34-11.94-1.42-1.28-3.14-2.11-5.08-2.11-1.76 0-3.87.78-5.08 2.11-1.26 1.37-2.19 3.17-2.11 5.08.07 1.87.67 3.83 2.09 5.11z" class="st0"/></svg>