<?xml version="1.0" standalone="no"?>
<!DOCTYPE svg PUBLIC "-//W3C//DTD SVG 20010904//EN"
 "http://www.w3.org/TR/2001/REC-SVG-20010904/DTD/svg10.dtd">
<svg version="1.0" xmlns="http://www.w3.org/2000/svg"
 width="1339.000000pt" height="1339.000000pt" viewBox="0 0 1339.000000 1339.000000"
 preserveAspectRatio="xMidYMid meet">
<metadata>
Created by potrace 1.14, written by Peter Selinger 2001-2017
</metadata>
<g transform="translate(0.000000,1339.000000) scale(0.100000,-0.100000)"
fill="#000000" stroke="none">
<path d="M4690 11288 c-14 -17 -31 -36 -37 -44 -7 -7 -13 -15 -13 -17 0 -3
-14 -21 -31 -40 -17 -20 -37 -44 -43 -55 -6 -10 -39 -61 -73 -113 -35 -52 -63
-100 -63 -106 0 -7 -4 -13 -8 -13 -10 0 -147 -269 -167 -330 -5 -15 -27 -68
-35 -85 -33 -70 -124 -390 -115 -405 3 -6 2 -10 -2 -10 -5 0 -13 -20 -19 -44
-5 -25 -6 -42 -1 -39 5 3 4 -4 -2 -15 -6 -11 -13 -40 -15 -63 -2 -24 -7 -55
-10 -69 -14 -55 -29 -270 -29 -405 0 -96 10 -320 14 -320 2 0 11 -86 13 -120
0 -16 4 -32 8 -35 3 -3 9 -25 12 -50 3 -25 9 -60 15 -78 5 -18 10 -35 10 -37
-1 -21 58 -235 66 -243 5 -5 2 33 -9 143 -28 268 -19 681 18 895 4 19 11 60
16 90 5 30 11 66 14 80 9 50 45 196 60 250 21 71 25 86 30 108 4 15 36 108 53
152 4 8 7 17 7 20 3 16 40 107 48 116 5 7 10 21 12 31 5 22 125 275 135 283 3
3 17 29 31 57 14 29 28 53 33 53 4 0 7 9 7 20 0 11 4 20 8 20 5 0 16 15 25 33
18 34 89 143 146 222 39 55 38 59 -37 142 l-47 52 -25 -31z"/>
<path d="M4618 8695 c-2 -2 -15 -5 -28 -7 -42 -6 -103 -40 -145 -80 -118 -112
-162 -150 -190 -164 -41 -21 -142 -41 -190 -37 -124 10 -266 11 -305 2 -25 -6
-49 -12 -55 -13 -73 -14 -215 -125 -263 -206 -56 -95 -110 -224 -126 -300 -3
-14 -8 -36 -11 -50 -33 -150 -33 -323 1 -512 7 -43 47 -171 69 -226 29 -70 30
-79 13 -79 -26 0 -97 -13 -248 -43 -85 -18 -171 -34 -190 -37 -19 -3 -43 -10
-53 -15 -10 -5 -21 -7 -24 -4 -3 3 -13 1 -22 -3 -9 -5 -29 -11 -46 -14 -16 -3
-41 -9 -55 -12 -14 -3 -32 -8 -40 -10 -8 -2 -15 -4 -15 -5 0 -1 -9 -3 -20 -5
-19 -4 -116 -30 -222 -59 -28 -8 -60 -19 -70 -24 -10 -6 -22 -11 -28 -11 -39
-6 -210 -65 -284 -98 -18 -8 -39 -16 -45 -17 -17 -3 -186 -84 -236 -113 -25
-15 -45 -25 -45 -22 0 2 -7 -2 -15 -8 -8 -7 -43 -33 -76 -58 -54 -39 -125
-105 -160 -148 -60 -72 -79 -198 -45 -285 22 -56 23 -57 71 -112 16 -19 30
-39 30 -44 0 -5 2 -7 5 -4 3 3 20 -8 38 -25 38 -35 142 -107 156 -107 5 0 11
-4 13 -9 8 -21 439 -211 480 -211 8 0 19 -5 24 -10 6 -6 24 -13 40 -16 16 -2
36 -7 44 -11 8 -3 20 -7 25 -9 6 -1 55 -16 111 -33 93 -28 153 -44 213 -57 14
-3 28 -7 31 -9 4 -2 22 -7 41 -10 19 -3 61 -13 94 -21 71 -19 93 -24 120 -28
11 -2 31 -6 45 -10 31 -7 75 -15 119 -22 19 -2 37 -6 40 -8 3 -3 51 -12 106
-21 111 -18 129 -21 165 -30 14 -3 43 -8 65 -10 22 -3 54 -8 70 -12 17 -3 46
-7 65 -9 19 -1 35 -3 35 -4 0 -2 31 -7 85 -13 61 -7 172 -23 220 -31 14 -3 55
-7 92 -11 37 -3 77 -8 90 -10 13 -3 48 -7 78 -9 30 -3 73 -7 95 -10 54 -6 134
-14 225 -22 119 -10 135 -12 135 -13 0 -1 36 -4 80 -6 44 -2 107 -7 140 -10
85 -7 218 -16 300 -20 39 -2 72 -4 75 -5 3 -1 8 -2 11 -2 18 3 81 1 139 -2
246 -16 432 -20 1030 -20 371 0 752 3 845 8 94 4 208 9 255 11 85 4 160 8 345
21 218 14 341 23 385 28 19 2 69 7 110 10 41 4 100 10 130 13 30 3 67 6 83 6
15 0 27 5 27 10 0 5 6 4 13 -2 8 -6 16 -9 18 -6 6 5 46 12 124 20 33 3 78 8
100 11 22 3 58 7 79 9 21 3 57 7 80 11 23 3 52 8 66 10 14 1 43 5 65 8 22 3
58 8 80 11 22 3 49 7 60 9 21 4 74 12 139 22 21 3 46 7 55 9 9 1 36 6 61 10
25 4 54 9 65 12 11 2 43 8 70 13 28 5 61 12 75 15 14 3 36 7 50 10 14 2 39 7
55 9 17 3 41 8 55 11 14 3 36 8 50 11 30 6 107 24 135 31 11 3 29 6 40 8 11 2
20 4 20 5 0 1 7 3 15 5 8 1 35 8 60 15 25 7 52 13 60 15 46 9 172 45 187 53
10 6 21 10 26 10 16 1 72 15 82 20 6 4 15 7 20 9 38 8 53 13 80 24 17 6 35 13
40 14 20 5 246 95 268 107 12 7 24 13 27 14 15 3 50 21 93 46 26 15 47 25 47
22 0 -2 6 0 13 6 6 6 39 28 72 50 33 21 70 48 82 59 12 12 25 21 27 21 6 0 47
42 79 80 10 12 30 45 45 73 65 123 40 242 -77 366 -26 28 -50 51 -53 51 -3 0
-19 12 -35 28 -26 23 -63 48 -192 123 -15 9 -38 20 -52 24 -13 4 -26 11 -29
14 -6 9 -153 72 -160 70 -3 -2 -15 3 -28 10 -31 16 -213 83 -262 96 -8 2 -78
22 -155 45 -147 43 -216 60 -290 74 -5 1 -14 4 -20 8 -5 3 -28 9 -50 12 -22 4
-47 8 -55 11 -30 9 -75 17 -97 19 -13 0 -23 4 -23 8 0 4 -8 6 -17 6 -10 0 -31
2 -48 6 -38 9 -38 9 -240 45 -166 30 -219 38 -280 46 -16 2 -39 6 -51 9 -12 2
-45 7 -75 11 -30 3 -83 11 -119 16 -85 13 -104 15 -175 23 -33 3 -76 8 -95 11
-53 8 -168 20 -280 29 -30 3 -55 6 -55 7 0 1 -11 2 -25 4 -43 3 -213 17 -250
21 -19 2 -71 5 -115 9 -44 3 -105 7 -135 9 -30 3 -98 7 -150 11 -52 3 -107 7
-122 9 -16 2 -28 -1 -28 -6 0 -5 -6 -6 -12 -1 -14 9 -11 8 -203 17 -485 22
-1754 25 -1845 4 -8 -1 -14 2 -13 8 23 125 31 287 18 389 -15 123 -25 166 -65
275 -29 82 -96 212 -112 218 -4 2 -8 9 -8 15 0 15 -85 125 -143 186 -83 86
-196 181 -216 181 -6 0 -11 4 -11 8 0 13 -188 112 -213 112 -7 0 -17 4 -22 9
-25 22 -232 60 -247 46z"/>
<path d="M2026 7002 c-2 -1 -23 -5 -47 -7 -117 -13 -136 -15 -159 -20 -14 -3
-45 -7 -70 -10 -25 -3 -57 -8 -72 -11 -15 -3 -39 -7 -55 -9 -15 -2 -39 -7 -53
-10 -14 -3 -38 -8 -55 -10 -16 -3 -37 -8 -46 -11 -10 -2 -30 -7 -45 -9 -16 -2
-44 -8 -62 -14 -18 -5 -35 -10 -37 -10 -13 1 -77 -15 -160 -38 -49 -14 -97
-27 -105 -28 -8 -1 -28 -8 -45 -14 -16 -7 -37 -14 -45 -16 -8 -2 -44 -14 -80
-28 -36 -13 -67 -24 -70 -25 -7 0 -54 -21 -148 -63 -45 -21 -84 -38 -85 -37
-12 3 -248 -150 -260 -169 -4 -7 -13 -13 -18 -13 -16 0 -153 -140 -175 -177
-10 -18 -21 -33 -25 -33 -12 0 -78 -156 -93 -217 -24 -107 -14 -269 25 -391
17 -52 96 -220 125 -264 13 -21 36 -57 51 -80 16 -24 30 -45 33 -48 3 -3 17
-21 30 -40 13 -19 29 -40 35 -46 5 -7 24 -29 40 -49 94 -116 150 -179 275
-308 221 -229 235 -243 260 -273 63 -74 100 -123 100 -132 0 -5 7 -15 15 -22
18 -15 107 -198 129 -266 16 -49 21 -70 32 -124 3 -14 8 -34 11 -45 3 -11 8
-36 9 -55 2 -19 5 -55 8 -80 12 -101 17 -196 21 -420 5 -286 12 -406 27 -450
3 -8 13 -41 22 -72 9 -32 21 -58 27 -58 5 0 9 -6 9 -13 0 -7 21 -31 46 -53 51
-43 134 -98 134 -88 0 4 6 2 13 -4 7 -6 26 -14 42 -17 46 -11 178 -13 196 -4
9 4 27 10 41 13 39 7 128 47 188 85 167 105 325 251 550 511 30 35 62 71 70
80 8 8 27 31 42 50 15 19 38 49 52 65 14 17 38 45 53 64 45 55 87 105 98 117
6 6 19 23 30 38 11 16 26 35 34 43 7 7 29 33 48 56 83 100 236 261 338 355
132 122 311 233 441 276 233 76 433 44 612 -100 30 -25 132 -125 132 -131 0
-2 18 -26 40 -52 22 -26 40 -53 40 -59 0 -7 4 -12 8 -12 5 0 17 -16 28 -35 10
-19 22 -35 26 -35 5 0 8 -5 8 -11 0 -5 18 -40 41 -77 34 -57 243 -473 292
-582 8 -19 31 -70 51 -112 19 -43 32 -78 29 -78 -3 0 1 -10 9 -22 24 -39 148
-364 148 -390 0 -8 3 -18 8 -22 4 -4 8 -12 8 -17 1 -5 3 -11 4 -14 1 -3 3 -8
4 -12 1 -5 5 -19 10 -33 4 -14 28 -90 53 -170 24 -80 49 -155 55 -167 11 -23
7 -24 103 13 11 4 22 8 25 9 3 0 39 9 80 19 41 10 82 20 90 23 34 13 204 19
245 9 33 -8 101 -33 134 -50 41 -22 111 -94 111 -116 0 -5 5 -10 12 -10 6 0 9
-3 5 -6 -3 -4 1 -20 9 -35 13 -26 17 -28 37 -18 32 17 131 91 135 101 2 4 8 8
14 8 5 0 46 25 90 55 44 30 83 55 88 55 5 0 15 6 22 13 11 11 165 108 266 168
15 9 43 26 62 38 19 12 43 24 53 27 9 4 17 9 17 13 0 4 16 13 35 21 19 8 35
17 35 20 0 4 18 15 40 25 22 10 40 22 40 27 0 4 6 8 13 8 6 1 37 16 67 35 30
18 75 44 100 56 25 12 47 25 50 29 3 3 77 46 165 95 88 49 168 95 178 103 9 8
17 12 17 8 0 -4 17 5 37 19 21 14 42 25 48 25 6 0 21 9 33 20 12 12 22 19 22
16 0 -3 30 12 68 33 135 76 272 151 377 205 33 17 62 33 65 36 3 3 50 27 105
53 55 27 107 53 115 58 20 12 82 40 95 43 6 1 30 12 55 24 58 27 222 81 261
86 16 1 31 5 34 8 12 12 143 -4 181 -23 57 -27 121 -100 139 -159 1 -3 5 -13
8 -22 17 -45 20 -54 24 -73 2 -11 8 -36 13 -55 5 -19 12 -55 15 -80 3 -25 8
-52 10 -60 2 -8 7 -33 10 -55 3 -23 8 -52 11 -65 3 -14 7 -34 9 -45 18 -98 48
-186 90 -260 79 -141 220 -235 345 -230 30 1 55 3 55 4 0 2 10 4 23 7 12 2 39
13 60 23 20 10 41 19 45 19 5 0 23 12 42 26 18 14 38 26 43 26 6 0 12 3 14 8
2 4 27 25 57 47 30 22 66 50 80 63 14 14 40 35 57 48 32 25 56 48 334 314 242
232 298 284 371 341 24 18 46 36 49 39 32 35 211 143 277 166 57 20 152 25
172 10 8 -6 16 -9 18 -7 8 7 69 -25 92 -49 34 -37 51 -76 69 -155 3 -11 5
-153 6 -315 1 -162 5 -315 10 -340 12 -68 34 -141 51 -167 9 -13 13 -23 10
-23 -7 0 33 -47 70 -83 39 -37 126 -81 193 -97 47 -11 208 -10 252 2 49 13 72
22 130 51 36 18 67 34 70 37 3 3 23 18 45 34 73 54 265 265 265 292 0 3 13 23
28 43 36 46 105 163 159 269 23 45 46 88 50 95 4 6 8 14 8 17 0 3 11 28 24 55
13 28 27 59 32 70 4 11 22 53 38 93 17 39 28 72 24 72 -3 0 -1 6 4 13 5 6 27
66 48 132 21 66 40 127 43 135 8 24 11 33 17 65 3 16 10 34 16 41 5 6 7 13 4
16 -3 3 4 41 15 85 11 44 22 96 24 114 3 19 5 34 6 34 3 0 20 109 25 160 2 17
4 30 5 30 1 0 3 11 5 25 30 270 26 642 -10 858 -2 15 -6 38 -8 52 -11 66 -20
108 -28 135 -5 17 -20 71 -34 120 -14 50 -29 97 -32 105 -4 8 -7 17 -8 20 -1
3 -8 21 -17 40 -8 19 -21 52 -28 73 -8 20 -18 37 -22 37 -4 0 -8 7 -8 15 0 26
-127 233 -190 310 -38 45 -211 218 -240 238 -38 26 -125 84 -170 112 -26 17
-37 20 -34 10 4 -8 9 -15 13 -15 20 0 153 -148 145 -161 -3 -5 -1 -9 3 -9 8 0
29 -46 41 -90 11 -38 7 -129 -6 -170 -28 -84 -80 -152 -192 -254 -37 -34 -204
-136 -295 -181 -55 -28 -102 -52 -105 -55 -3 -3 -12 -6 -20 -8 -8 -2 -39 -14
-68 -28 -29 -13 -54 -24 -57 -24 -2 0 -16 -5 -32 -12 -77 -31 -462 -157 -491
-160 -15 -2 -29 -6 -32 -10 -3 -4 -19 -9 -35 -12 -17 -2 -30 -5 -30 -6 0 -2
-4 -3 -110 -29 -44 -11 -107 -26 -141 -35 -34 -8 -73 -17 -88 -20 -14 -3 -34
-7 -44 -10 -9 -3 -28 -7 -42 -10 -14 -3 -106 -21 -205 -41 -99 -20 -193 -39
-210 -41 -16 -3 -39 -7 -50 -8 -11 -2 -38 -7 -60 -11 -70 -11 -90 -15 -110
-19 -11 -2 -40 -7 -65 -10 -25 -3 -56 -8 -70 -11 -14 -3 -43 -7 -65 -10 -22
-4 -49 -8 -60 -9 -11 -2 -49 -8 -85 -12 -65 -8 -78 -10 -82 -13 -2 -1 -25 -4
-53 -7 -46 -4 -90 -11 -90 -14 0 0 -29 -3 -65 -5 -36 -3 -74 -7 -86 -9 -20 -4
-76 -11 -179 -22 -27 -3 -61 -7 -75 -9 -23 -4 -109 -12 -215 -20 -22 -2 -40
-4 -40 -5 0 -1 -25 -3 -55 -5 -30 -2 -81 -6 -112 -9 -81 -8 -149 -14 -248 -21
-47 -3 -110 -8 -140 -10 -30 -3 -100 -7 -155 -10 -55 -3 -127 -7 -160 -10 -64
-5 -280 -15 -433 -19 -51 -2 -95 -6 -99 -9 -3 -4 -14 -2 -24 4 -11 5 -19 6
-19 2 0 -9 -104 -11 -805 -15 -291 -2 -567 -1 -613 2 -47 3 -87 1 -93 -4 -6
-6 -9 -6 -9 0 0 5 -64 10 -153 11 -83 1 -228 5 -322 9 -93 3 -196 7 -227 8
-32 0 -58 3 -58 6 0 3 -37 5 -83 6 -71 1 -128 4 -347 19 -25 1 -81 6 -125 9
-157 12 -221 17 -270 21 -58 4 -151 13 -215 21 -43 5 -99 10 -205 19 -27 2
-61 6 -75 9 -14 2 -54 7 -90 10 -36 4 -76 8 -90 11 -14 2 -47 7 -75 9 -27 3
-59 7 -70 10 -12 2 -52 7 -90 11 -38 3 -72 8 -75 10 -3 2 -31 6 -61 9 -30 3
-63 8 -74 10 -11 2 -42 7 -68 10 -27 4 -56 9 -65 11 -10 1 -37 6 -62 9 -25 3
-58 9 -75 11 -16 3 -55 10 -85 15 -113 19 -151 26 -255 46 -44 8 -91 17 -105
20 -14 2 -43 9 -65 14 -22 5 -53 12 -70 14 -16 2 -30 5 -30 6 0 2 -12 4 -60
13 -16 4 -79 18 -140 32 -60 15 -118 28 -128 30 -9 2 -21 6 -25 9 -5 3 -22 8
-38 11 -16 2 -42 7 -59 11 -16 3 -35 10 -42 16 -7 6 -13 8 -13 5 0 -4 -18 0
-40 8 -22 8 -40 12 -40 10 0 -3 -17 2 -37 9 -21 8 -78 27 -128 42 -82 24 -275
93 -350 125 -16 7 -32 13 -35 14 -52 17 -313 148 -330 165 -7 7 -43 29 -60 37
-8 4 -20 12 -26 17 -7 6 -25 20 -40 31 -37 26 -154 138 -154 147 0 4 -8 17
-17 27 -48 57 -75 180 -58 266 7 34 46 118 58 123 4 2 7 8 7 14 0 10 124 135
161 163 120 92 329 201 544 285 11 4 38 15 60 23 77 31 275 96 275 90 0 -3 6
-1 13 5 6 5 28 13 47 17 19 4 40 10 45 13 6 4 15 7 20 8 6 1 30 7 55 14 60 16
83 21 98 22 6 1 12 5 12 9 0 6 -78 8 -84 1z"/>
</g>
</svg>
